<?xml version="1.0" encoding="UTF-8" standalone="no"?>
<!DOCTYPE svg PUBLIC "-//W3C//DTD SVG 1.1//EN" "http://www.w3.org/Graphics/SVG/1.1/DTD/svg11.dtd">
<svg width="100%" height="100%" viewBox="0 0 159 170" version="1.1" xmlns="http://www.w3.org/2000/svg" xmlns:xlink="http://www.w3.org/1999/xlink" xml:space="preserve" xmlns:serif="http://www.serif.com/" style="fill-rule:evenodd;clip-rule:evenodd;stroke-linejoin:round;stroke-miterlimit:2;">
    <g transform="matrix(0.11513,0,0,-0.11513,-860.997,1434.52)">
        <path d="M8167,12387C8048,12164 8039,12143 8028,12069C8023,12028 8021,11976 8024,11952L8030,11910L7987,11917C7964,11922 7907,11924 7860,11924C7788,11922 7752,11915 7630,11875C7550,11850 7484,11827 7481,11825C7470,11813 7496,11765 7539,11718C7601,11650 7662,11617 7773,11591C7853,11572 7920,11546 7920,11535C7920,11532 7902,11514 7880,11494C7800,11421 7766,11297 7772,11095C7775,11007 7777,10995 7794,10992C7804,10990 7867,11025 7944,11077C8017,11125 8100,11177 8128,11192C8173,11216 8209,11254 8245,11315C8254,11330 8260,11327 8299,11290C8384,11209 8487,11154 8591,11135L8627,11128L8635,11205C8639,11247 8639,11325 8635,11378C8624,11518 8595,11567 8495,11611L8445,11633L8493,11647C8563,11667 8584,11683 8724,11817L8851,11939L8778,11961C8623,12007 8467,12000 8370,11943C8367,11941 8364,11981 8364,12032C8364,12139 8354,12175 8294,12280C8271,12321 8243,12379 8233,12408C8223,12436 8213,12460 8210,12460C8207,12460 8188,12427 8167,12387Z" style="fill:rgb(219,92,30);fill-rule:nonzero;"/>
    </g>
</svg>
