<?xml version="1.0" standalone="no"?>
<!DOCTYPE svg PUBLIC "-//W3C//DTD SVG 20010904//EN"
 "http://www.w3.org/TR/2001/REC-SVG-20010904/DTD/svg10.dtd">
<svg version="1.0" xmlns="http://www.w3.org/2000/svg"
 width="680.000000pt" height="680.000000pt" viewBox="0 0 680.000000 680.000000"
 preserveAspectRatio="xMidYMid meet">
<metadata>
Created by potrace 1.11, written by Peter Selinger 2001-2013
</metadata>
<g transform="translate(0.000000,680.000000) scale(0.100000,-0.100000)"
fill="#000000" stroke="none">
<path d="M3559 6762 c-32 -46 -161 -279 -159 -288 1 -4 -2 -10 -7 -13 -4 -3
-22 -33 -38 -66 -17 -33 -32 -62 -35 -65 -3 -3 -22 -39 -44 -80 -21 -41 -56
-106 -76 -145 -80 -149 -259 -503 -288 -571 -35 -80 -55 -127 -56 -134 -1 -3
-5 -11 -9 -17 -11 -18 -47 -123 -42 -123 3 0 0 -11 -5 -25 -11 -28 -14 -40
-34 -140 -32 -162 -50 -523 -32 -645 3 -25 9 -61 12 -80 13 -87 13 -100 1
-100 -7 0 -62 9 -123 19 -60 11 -146 23 -190 27 -106 11 -621 11 -709 0 -38
-5 -77 -9 -85 -10 -9 -1 -21 -5 -28 -10 -6 -4 -12 -5 -12 -3 0 4 -40 -4 -190
-38 -8 -1 -42 -11 -75 -21 -33 -10 -64 -18 -70 -19 -5 -1 -17 -4 -25 -7 -8 -3
-31 -10 -50 -16 -41 -12 -390 -123 -505 -159 -44 -14 -89 -30 -100 -34 -11 -5
-94 -33 -184 -64 -91 -30 -169 -60 -173 -67 -25 -36 22 -157 110 -283 31 -44
61 -85 66 -91 6 -7 26 -30 44 -53 32 -38 198 -207 238 -241 10 -8 41 -32 68
-52 28 -21 56 -42 63 -48 7 -5 17 -10 23 -10 5 0 10 -4 10 -8 0 -4 28 -23 63
-41 34 -18 77 -41 95 -52 18 -10 34 -19 37 -19 8 -1 99 -40 117 -50 10 -5 26
-10 36 -10 10 0 22 -4 28 -10 5 -5 18 -11 29 -13 11 -2 27 -7 35 -10 39 -15
343 -97 420 -113 14 -2 40 -9 58 -15 18 -6 39 -12 45 -13 16 -3 146 -45 172
-56 11 -4 57 -22 102 -40 94 -36 163 -78 163 -98 0 -8 -71 -85 -159 -171 -87
-87 -162 -168 -166 -179 -3 -12 -10 -22 -14 -22 -8 0 -71 -95 -71 -107 0 -3
-8 -17 -19 -31 -56 -81 -157 -367 -186 -532 -4 -19 -11 -60 -16 -90 -6 -30
-12 -75 -14 -100 -3 -25 -7 -55 -9 -66 -14 -68 -21 -259 -21 -559 1 -350 8
-505 26 -553 6 -15 10 -29 10 -32 -4 -34 52 -67 91 -54 13 4 25 8 28 9 8 1
144 69 150 75 3 3 23 14 45 25 22 11 42 23 45 26 3 3 32 20 65 39 33 19 62 36
65 40 3 3 23 17 45 30 22 13 112 72 200 130 88 58 164 107 169 109 4 2 54 33
110 70 56 36 111 71 121 78 11 7 49 30 85 53 219 138 256 161 270 167 8 4 43
24 78 45 34 21 67 38 72 38 6 0 10 5 10 10 0 6 5 10 12 10 20 0 149 105 219
177 36 37 89 100 117 138 28 39 55 75 60 80 4 6 28 43 51 83 24 40 47 75 52
78 17 10 49 13 49 3 0 -5 6 -9 13 -9 14 0 27 -11 153 -126 142 -130 222 -196
329 -272 55 -40 105 -76 112 -82 7 -5 15 -10 17 -10 3 0 30 -15 59 -34 73 -47
266 -146 352 -180 73 -30 230 -88 230 -85 0 0 25 -6 56 -15 31 -9 66 -19 78
-21 50 -11 112 -24 141 -30 42 -9 94 -18 110 -19 9 -1 21 -5 28 -10 8 -5 13 1
14 18 3 43 6 78 12 136 12 110 17 156 21 185 4 23 17 398 17 460 0 41 -13 328
-17 360 -2 22 -6 69 -9 105 -8 91 -15 131 -38 245 -11 55 -23 112 -25 128 -3
15 -9 30 -14 33 -5 3 -9 12 -9 21 0 21 -67 160 -98 203 -46 63 -159 168 -229
213 -62 41 -197 109 -298 151 -22 10 -53 24 -68 32 -16 8 -33 14 -39 14 -5 0
-16 6 -23 14 -12 12 -7 16 33 26 26 7 53 15 60 17 6 1 18 4 25 6 66 18 104 29
117 34 8 3 23 8 34 10 20 4 53 17 160 66 70 32 237 144 267 178 9 11 19 19 23
19 4 0 17 10 30 23 13 12 56 51 96 87 103 91 316 292 511 480 37 36 149 144
250 240 234 224 229 220 229 228 0 6 -53 23 -305 99 -27 8 -66 18 -85 23 -19
5 -62 16 -95 24 -33 9 -73 18 -90 21 -16 3 -37 8 -45 10 -8 2 -31 7 -50 10
-19 3 -42 8 -50 10 -8 2 -37 7 -65 10 -27 4 -59 8 -70 10 -61 10 -142 17 -235
20 -58 3 -107 5 -110 6 -17 4 -263 -7 -340 -16 -202 -23 -419 -83 -578 -161
-48 -23 -89 -40 -91 -38 -11 10 -19 164 -26 479 -2 132 -7 251 -10 265 -2 14
-7 41 -9 60 -4 29 -20 114 -30 155 -6 29 -50 151 -56 160 -5 6 -9 12 -9 15 -3
31 -152 333 -191 385 -4 6 -33 60 -65 120 -31 61 -62 116 -69 124 -6 8 -9 15
-7 15 2 1 -22 55 -54 121 -31 66 -58 127 -60 136 -2 9 -8 25 -13 35 -6 11 -20
46 -32 79 -39 108 -91 225 -99 225 -3 0 -18 -17 -32 -38z"/>
</g>
</svg>
