<svg viewBox="0 0 683 683" xmlns="http://www.w3.org/2000/svg" fill-rule="evenodd" clip-rule="evenodd" stroke-linejoin="round" stroke-miterlimit="2"><g fill="#fff"><path d="M524.83 100.37s17.52-16.87 44.83 10.03c28.21 27.79 11.52 46.86 11.52 46.86L337.7 400.48l-56.76-56.21 243.9-243.9z"/><path d="M522.58 306.44c2.65 12.41 4.09 25.27 4.15 38.46.42 103.17-82.87 187.15-186.04 187.58-103.17.42-187.15-82.87-187.57-186.04-.43-103.17 82.86-187.14 186.03-187.57 15.8-.06 31.13 1.85 45.8 5.48l58-58a255.03 255.03 0 00-102.67-21.01C198.9 85.92 84.76 201 85.34 342.39 85.92 483.77 201 597.9 342.39 597.33c141.38-.58 255.52-115.66 254.94-257.05a255.3 255.3 0 00-17.23-91.3l-57.52 57.46z"/></g></svg>