<svg xmlns="http://www.w3.org/2000/svg" fill-rule="evenodd" stroke-linejoin="round" stroke-miterlimit="2" clip-rule="evenodd" viewBox="0 0 1451 1475">
  <path fill="#db5c1e" fill-rule="nonzero" d="M10522,13699C10500,13653 10466,13588 10446,13555C10398,13478 10378,13404 10379,13320L10380,13252L10304,13282C10209,13319 10123,13320 9999,13287L9913,13264L10032,13141C10127,13044 10165,13012 10213,12989C10247,12973 10282,12960 10290,12960C10298,12960 10278,12947 10245,12931C10176,12899 10136,12857 10120,12802C10114,12782 10107,12696 10103,12611L10097,12457L10149,12464C10251,12477 10368,12538 10458,12623C10478,12643 10490,12649 10490,12639C10490,12612 10541,12515 10573,12482C10591,12463 10623,12439 10645,12428C10667,12417 10728,12377 10780,12340C10892,12261 10939,12235 10951,12247C10969,12265 10980,12401 10971,12479C10959,12573 10943,12618 10880,12738C10852,12790 10830,12833 10830,12834C10830,12835 10858,12835 10893,12835C10997,12836 11045,12848 11110,12892C11178,12937 11258,13039 11266,13092L11272,13125L11117,13178C10974,13227 10953,13231 10867,13232C10815,13232 10763,13229 10750,13225C10728,13218 10728,13219 10734,13261C10737,13285 10736,13340 10731,13383C10723,13452 10713,13480 10641,13621L10561,13782L10522,13699Z" transform="matrix(.11513 0 0 -.11513 -124.343 1586.76)"/>
  <path fill="#411f09" fill-rule="nonzero" d="M11383,12858C11315,12785 11180,12517 11115,12328C11059,12164 11005,11970 10900,11550C10855,11371 10813,11215 10805,11204C10763,11139 10247,10828 9190,10230C8576,9882 8545,9867 8161,9729C7848,9616 6897,9330 6882,9344C6879,9347 6892,9373 6911,9402C6992,9530 7052,9671 7246,10195C7298,10338 7370,10516 7405,10590C7474,10739 7516,10861 7552,11020C7571,11107 7575,11153 7575,11292C7575,11433 7572,11462 7559,11476C7513,11522 7451,11418 7281,11003C7206,10821 7105,10631 6742,9985C6591,9716 6426,9418 6376,9323C6296,9171 6282,9151 6260,9150C6171,9149 5791,9050 5490,8951C5070,8811 4814,8694 4560,8522C4015,8155 3691,7814 3485,7395C3392,7203 3340,7055 3154,6432C3061,6122 2983,5874 2981,5882C2978,5889 2899,6143 2805,6445L2635,6995L2195,6995L2043,6470C1960,6181 1886,5927 1880,5905C1868,5866 1865,5874 1699,6410C1607,6710 1526,6965 1521,6978C1511,7000 1509,7000 1295,7000C1177,7000 1080,6997 1080,6993C1080,6988 1206,6625 1359,6185L1638,5385L1847,5382L2057,5380L2226,5929C2319,6231 2398,6476 2401,6472C2405,6467 2660,5738 2766,5428L2782,5380L2980,5380C3092,5380 3181,5384 3185,5389C3188,5394 3287,5683 3406,6030C3524,6378 3645,6725 3675,6801C3705,6877 3760,7019 3796,7117C3952,7534 4048,7678 4339,7934C4567,8134 4775,8282 4980,8388C5212,8509 5383,8563 5815,8650C6249,8737 6385,8774 6664,8880C6910,8973 7105,9033 7910,9260C8751,9497 8954,9561 9111,9640C9447,9810 10167,10326 11605,11430C12037,11762 12143,11840 12411,12025C12840,12322 13047,12496 13070,12579C13093,12665 13062,12657 12904,12534C12777,12434 12671,12365 12195,12075C11559,11687 11360,11558 11245,11461C11180,11405 11155,11398 11144,11433C11111,11536 11210,12055 11336,12444C11417,12692 11448,12836 11430,12870C11424,12881 11418,12890 11417,12890C11415,12890 11400,12875 11383,12858Z" transform="matrix(.11513 0 0 -.11513 -124.343 1586.76)"/>
  <path fill="#db5c1e" fill-rule="nonzero" d="M8167 12387C8048 12164 8039 12143 8028 12069 8023 12028 8021 11976 8024 11952L8030 11910 7987 11917C7964 11922 7907 11924 7860 11924 7788 11922 7752 11915 7630 11875 7550 11850 7484 11827 7481 11825 7470 11813 7496 11765 7539 11718 7601 11650 7662 11617 7773 11591 7853 11572 7920 11546 7920 11535 7920 11532 7902 11514 7880 11494 7800 11421 7766 11297 7772 11095 7775 11007 7777 10995 7794 10992 7804 10990 7867 11025 7944 11077 8017 11125 8100 11177 8128 11192 8173 11216 8209 11254 8245 11315 8254 11330 8260 11327 8299 11290 8384 11209 8487 11154 8591 11135L8627 11128 8635 11205C8639 11247 8639 11325 8635 11378 8624 11518 8595 11567 8495 11611L8445 11633 8493 11647C8563 11667 8584 11683 8724 11817L8851 11939 8778 11961C8623 12007 8467 12000 8370 11943 8367 11941 8364 11981 8364 12032 8364 12139 8354 12175 8294 12280 8271 12321 8243 12379 8233 12408 8223 12436 8213 12460 8210 12460 8207 12460 8188 12427 8167 12387zM11894 11227C11774 11106 11760 11089 11731 11018 11714 10976 11700 10932 11700 10921 11700 10895 11699 10895 11642 10924 11555 10968 11495 10979 11317 10982L11149 10985 11143 10961C11128 10901 11203 10715 11263 10664 11300 10633 11426 10570 11452 10570 11480 10570 11473 10558 11429 10525 11357 10472 11261 10362 11226 10291 11183 10206 11144 10060 11162 10049 11178 10039 11209 10045 11359 10086 11428 10105 11495 10120 11509 10120 11554 10120 11639 10167 11689 10220L11738 10271 11772 10208C11790 10174 11828 10121 11856 10090 11910 10033 12012 9964 12028 9974 12042 9983 12118 10218 12126 10278 12135 10347 12112 10406 12056 10458L12013 10497 12088 10503C12155 10508 12177 10516 12320 10587L12477 10666 12391 10722C12278 10797 12238 10810 12128 10810 12046 10810 12039 10812 12045 10828 12083 10919 12091 11041 12066 11152 12058 11187 12048 11248 12044 11288 12041 11327 12035 11360 12031 11359 12028 11358 11966 11299 11894 11227zM10658 10220C10574 10138 10520 10056 10520 10012 10520 9982 10513 9982 10457 10009 10410 10032 10392 10035 10268 10038L10130 10042 10130 10003C10132 9910 10187 9823 10273 9780 10306 9764 10340 9750 10348 9750 10355 9750 10338 9730 10308 9706 10223 9637 10171 9557 10151 9468 10145 9443 10138 9416 10134 9407 10125 9382 10164 9385 10295 9416 10424 9447 10485 9474 10513 9512 10524 9527 10537 9540 10540 9540 10543 9540 10554 9524 10563 9504 10586 9456 10666 9372 10711 9349L10748 9331 10768 9388C10780 9419 10797 9474 10805 9509 10821 9568 10821 9576 10805 9616 10796 9640 10778 9668 10764 9679 10751 9689 10740 9700 10740 9703 10740 9706 10761 9708 10786 9708 10820 9708 10859 9721 10946 9763L11061 9818 11016 9850C10938 9903 10891 9920 10818 9920L10751 9920 10765 9954C10785 10002 10788 10076 10774 10145 10767 10178 10761 10226 10760 10252 10760 10278 10757 10300 10753 10302 10748 10304 10706 10267 10658 10220zM8438 9120C8309 9077 8234 9042 8208 9013 8183 8986 8163 8933 8155 8872L8148 8819 8120 8863C8084 8920 8057 8938 7884 9025L7739 9097 7745 9001C7755 8848 7775 8792 7850 8708 7878 8676 7887 8659 7878 8656 7871 8653 7847 8646 7825 8639 7745 8615 7706 8587 7575 8454 7450 8330 7443 8320 7470 8320 7486 8320 7545 8311 7602 8301 7772 8268 7811 8266 7890 8284 7930 8293 7976 8308 7992 8316 8009 8325 8023 8330 8024 8328 8025 8326 8032 8296 8039 8260 8046 8224 8064 8168 8079 8135 8114 8059 8266 7856 8291 7852 8318 7847 8390 7926 8430 8006 8463 8069 8465 8080 8464 8165 8464 8232 8458 8269 8442 8308 8426 8350 8424 8360 8436 8356 8479 8340 8611 8339 8705 8355 8830 8376 8964 8421 8968 8443 8970 8453 8944 8476 8893 8511 8850 8540 8791 8585 8763 8612 8706 8665 8633 8703 8551 8723 8523 8729 8500 8738 8500 8743 8500 8747 8511 8773 8525 8800 8571 8891 8591 9020 8574 9123 8570 9143 8565 9160 8561 9160 8558 9160 8503 9142 8438 9120z" transform="matrix(.11513 0 0 -.11513 -124.343 1586.76)"/>
  <path fill="#411f09" fill-rule="nonzero" d="M11937 7183C11878 6958 11827 6765 11823 6752L11818 6730 11995 6732 12173 6735 12245 6960C12285 7084 12347 7276 12383 7388L12448 7590 12045 7590 11937 7183zM4416 7029C4247 7006 4075 6933 3957 6835 3634 6567 3568 6068 3806 5708 3974 5456 4309 5312 4645 5348 5017 5389 5299 5622 5391 5965 5417 6062 5422 6279 5401 6375 5317 6757 5000 7013 4589 7034 4532 7036 4454 7034 4416 7029zM4659 6655C4790 6624 4893 6542 4953 6420 4999 6330 5014 6255 5007 6155 4990 5904 4818 5729 4575 5713 4430 5703 4306 5747 4213 5840 4021 6032 4025 6363 4221 6544 4340 6655 4494 6694 4659 6655zM6363 7026C6221 6999 6102 6921 6024 6806L5991 6756 5988 6876 5985 6995 5793 6998 5600 7000 5600 5380 5803 5382 6005 5385 6010 5890C6016 6447 6014 6431 6082 6531 6177 6671 6415 6715 6545 6616 6563 6602 6591 6564 6607 6533L6635 6475 6645 5385 6848 5382 7050 5380 7050 5842C7050 6331 7054 6384 7099 6484 7162 6629 7333 6702 7496 6655 7571 6633 7636 6570 7665 6490 7684 6438 7685 6402 7688 5908L7691 5380 8100 5380 8100 5893C8100 6180 8096 6443 8090 6490 8055 6781 7922 6955 7687 7017 7604 7039 7426 7039 7342 7017 7211 6982 7106 6910 7024 6799L6987 6749 6962 6792C6901 6898 6788 6983 6664 7015 6580 7037 6446 7042 6363 7026zM9040 7030C8819 7001 8646 6917 8504 6769 8353 6611 8280 6422 8280 6191 8280 5849 8452 5571 8751 5431 8888 5366 8988 5346 9160 5347 9335 5347 9418 5366 9560 5437 9636 5475 9673 5502 9748 5575L9842 5665 9708 5766C9635 5821 9569 5870 9562 5874 9554 5879 9524 5858 9478 5816 9368 5714 9258 5670 9110 5670 9033 5670 8943 5694 8876 5734 8789 5785 8707 5906 8693 6005L8687 6050 9913 6050 9907 6208C9903 6331 9896 6386 9876 6463 9785 6816 9548 7015 9199 7034 9147 7036 9076 7035 9040 7030zM9200 6720C9368 6688 9483 6568 9497 6409L9503 6350 8690 6350 8690 6373C8690 6410 8727 6509 8761 6562 8845 6693 9017 6755 9200 6720zM10934 7031C10864 7020 10815 7003 10747 6967 10684 6934 10589 6839 10562 6782L10545 6747 10535 6995 10343 6998 10150 7000 10150 5380 10353 5382 10555 5385 10560 5890C10566 6447 10564 6431 10632 6531 10694 6622 10821 6677 10946 6667 11080 6657 11157 6584 11196 6428 11209 6376 11213 6275 11217 5873L11223 5380 11621 5380 11618 5973C11615 6501 11612 6571 11597 6624 11535 6833 11406 6965 11215 7015 11144 7033 11001 7041 10934 7031zM12938 7030C12749 7007 12582 6920 12495 6802 12365 6625 12380 6344 12527 6210 12601 6142 12688 6103 12854 6064 13150 5993 13213 5968 13251 5907 13278 5862 13276 5792 13247 5749 13213 5698 13126 5658 13037 5652 12901 5644 12790 5687 12680 5791 12652 5818 12626 5840 12622 5840 12618 5839 12557 5783 12485 5715L12355 5592 12385 5560C12429 5513 12529 5444 12595 5415 12790 5328 13087 5319 13305 5391 13417 5429 13469 5459 13542 5528 13643 5624 13687 5744 13677 5900 13670 6014 13641 6087 13573 6160 13485 6256 13381 6300 13080 6369 12923 6406 12854 6439 12826 6491 12790 6557 12827 6637 12914 6683 12948 6701 12972 6704 13050 6705 13132 6705 13153 6701 13202 6678 13234 6663 13283 6628 13311 6600 13362 6549 13362 6549 13384 6567 13478 6651 13626 6785 13628 6791 13635 6807 13491 6925 13426 6956 13290 7020 13096 7050 12938 7030z" transform="matrix(.11513 0 0 -.11513 -124.343 1586.76)"/>
  <path fill="#db5c1e" fill-rule="nonzero" d="M6661 5020C6347 4954 6178 4732 6218 4435 6239 4275 6314 4172 6467 4092 6511 4069 6625 4024 6721 3991 6986 3902 7060 3858 7115 3759 7142 3710 7145 3696 7145 3615 7145 3534 7142 3520 7116 3472 6998 3260 6673 3212 6453 3374 6421 3397 6382 3435 6367 3458L6338 3499 6254 3438 6171 3377 6211 3329C6260 3271 6377 3190 6457 3160 6720 3061 7011 3109 7196 3282 7406 3478 7401 3839 7186 4000 7111 4056 7032 4092 6849 4155 6582 4247 6492 4301 6438 4403 6420 4437 6415 4461 6415 4530 6415 4603 6419 4623 6443 4672 6477 4741 6523 4783 6609 4823 6664 4849 6688 4854 6775 4858 6851 4861 6891 4858 6936 4846 7007 4825 7089 4774 7125 4725 7140 4706 7155 4690 7159 4690 7162 4690 7200 4718 7243 4751L7322 4812 7288 4847C7234 4903 7130 4967 7045 4996 6977 5019 6945 5023 6835 5026 6764 5028 6685 5025 6661 5020zM12890 5015C12792 4993 12671 4929 12608 4866 12512 4770 12470 4660 12470 4505 12470 4311 12556 4174 12732 4087 12772 4067 12885 4024 12982 3991 13192 3920 13246 3894 13311 3834 13457 3696 13436 3472 13265 3355 13067 3218 12760 3269 12620 3461L12594 3498 12512 3438C12416 3369 12416 3372 12512 3285 12591 3214 12727 3146 12832 3125 13280 3037 13658 3328 13601 3718 13585 3825 13544 3904 13469 3974 13395 4043 13299 4090 13081 4165 12834 4249 12757 4295 12703 4388 12678 4430 12675 4444 12675 4530 12675 4611 12679 4632 12700 4674 12732 4737 12807 4803 12878 4832 12927 4851 12953 4855 13060 4855 13175 4855 13190 4853 13243 4828 13275 4813 13327 4775 13360 4744L13419 4688 13494 4746C13536 4778 13570 4809 13570 4814 13570 4830 13481 4906 13417 4944 13315 5004 13244 5022 13090 5026 12997 5028 12935 5025 12890 5015zM4093 4982L3980 4979 3980 3150 4160 3150 4161 3928C4162 4355 4162 4708 4161 4713 4161 4717 4163 4720 4168 4720 4172 4720 4420 4366 4720 3935L5265 3151 5378 3150 5490 3150 5490 4978 5409 4982C5364 4984 5324 4983 5319 4979 5314 4976 5309 4639 5308 4203L5305 3432 5104 3718C4461 4634 4227 4966 4217 4975 4210 4981 4158 4984 4093 4982zM1330 4980L1330 3150 1510 3150 1511 3933C1512 4363 1512 4718 1511 4723 1511 4727 1513 4730 1518 4730 1522 4730 1606 4538 1704 4303 1802 4067 1951 3712 2034 3513L2185 3150 2232 3150C2278 3150 2280 3151 2298 3193 2308 3216 2458 3573 2631 3987L2945 4739 2948 3945 2950 3150 3130 3150 3132 4056C3134 4554 3132 4966 3129 4971 3126 4977 3064 4979 2986 4978L2848 4975 2542 4237C2374 3832 2233 3503 2229 3507 2226 3512 2086 3845 1919 4248L1616 4980 1330 4980zM3470 4980L3470 3150 3650 3150 3650 4980 3470 4980zM5780 4980L5780 3150 5960 3150 5960 4980 5780 4980zM7510 4980L7510 4820 8120 4820 8120 3150 8300 3150 8302 3983 8305 4815 8613 4818 8920 4820 8920 4980 7510 4980zM9140 4980L9140 3150 9320 3150 9321 3558C9322 3782 9323 3974 9324 3985 9325 4004 9333 4005 9471 4008 9600 4011 9619 4009 9637 3993 9648 3983 9767 3789 9900 3563L10142 3150 10368 3150 10107 3581C9963 3818 9846 4015 9847 4018 9848 4022 9879 4030 9916 4037 10012 4055 10116 4107 10178 4169 10313 4304 10346 4541 10255 4726 10212 4814 10153 4870 10057 4916 9933 4974 9887 4980 9493 4980L9140 4980zM9776 4809C9932 4788 10029 4731 10077 4633 10115 4555 10117 4440 10082 4368 10031 4265 9922 4201 9765 4181 9681 4171 9360 4167 9337 4176 9322 4182 9320 4211 9320 4494 9320 4666 9323 4810 9327 4813 9338 4824 9692 4821 9776 4809zM10610 4980L10610 3150 10800 3150 10800 4980 10610 4980zM11130 4980L11130 3150 12290 3150 12290 3320 11310 3320 11310 4020 12200 4020 12200 4190 11310 4190 11310 4820 12260 4820 12260 4980 11130 4980zM1330 2820L1330 2770 13610 2770 13610 2820 1330 2820z" transform="matrix(.11513 0 0 -.11513 -124.343 1586.76)"/>
  <path fill="#231f20" fill-rule="nonzero" d="M7860 2312C7812 2286 7787 2237 7795 2181 7803 2113 7827 2093 7963 2045 8022 2024 8045 1993 8036 1946 8027 1901 8000 1879 7947 1873 7901 1867 7844 1889 7834 1915 7829 1926 7823 1926 7804 1918 7774 1904 7774 1899 7803 1872 7871 1808 8028 1818 8064 1889 8079 1918 8083 1939 8081 1988 8080 2035 8039 2070 7952 2098 7905 2113 7874 2130 7860 2147 7792 2234 7905 2328 8009 2270 8042 2251 8052 2249 8065 2260 8077 2270 8078 2275 8068 2288 8032 2331 7920 2343 7860 2312zM1360 2320L1360 1840 1410 1840 1410 2320 1360 2320zM1820 2321L1820 1840 1870 1840 1872 2044 1875 2248 2015 2044C2148 1851 2157 1841 2188 1840L2220 1840 2220 2320 2170 2320 2168 2115 2165 1911 2025 2113C1896 2299 1882 2315 1853 2318L1820 2321zM3050 2300C3050 2283 3058 2281 3133 2278L3215 2275 3217 2060C3219 1852 3220 1845 3240 1842 3260 1839 3260 1843 3260 2059L3260 2280 3340 2280C3413 2280 3420 2282 3420 2300 3420 2319 3413 2320 3235 2320 3058 2320 3050 2319 3050 2300zM3780 2320L3780 1840 3830 1840 3830 2070 3959 2070C4072 2070 4089 2068 4094 2053 4098 2043 4100 1993 4099 1940 4097 1850 4098 1845 4119 1842 4140 1839 4140 1839 4140 2079 4140 2313 4139 2320 4120 2320 4097 2320 4098 2326 4100 2203L4101 2110 3830 2110 3830 2320 3780 2320zM4560 2320L4560 1840 4708 1840C4790 1840 4859 1843 4863 1846 4866 1849 4866 1858 4863 1866 4859 1877 4830 1880 4729 1880L4600 1880 4600 1969C4600 2075 4596 2072 4725 2070 4846 2068 4840 2067 4840 2090 4840 2109 4833 2110 4720 2110L4599 2110 4602 2193 4605 2275 4728 2278C4842 2280 4850 2282 4850 2300 4850 2319 4843 2320 4705 2320L4560 2320zM5760 2320L5760 1840 5810 1840 5810 2067 5886 2069C6006 2072 6050 2105 6050 2193 6050 2287 5998 2320 5850 2320L5760 2320zM5955 2265C5988 2252 6010 2219 6010 2184 6010 2175 5997 2155 5981 2139 5954 2112 5946 2110 5881 2110L5810 2110 5810 2280 5865 2280C5896 2280 5936 2273 5955 2265zM6430 2320L6430 1840 6480 1840 6480 2070 6559 2070 6627 1955C6687 1854 6698 1840 6722 1840 6749 1840 6749 1840 6681 1954L6612 2067 6651 2079C6703 2095 6730 2132 6730 2187 6730 2287 6679 2320 6525 2320L6430 2320zM6629 2269C6687 2249 6703 2174 6658 2133 6643 2120 6617 2114 6559 2111L6480 2108 6480 2280 6539 2280C6571 2280 6611 2275 6629 2269zM7120 2320L7120 1840 7275 1840C7423 1840 7430 1841 7430 1860 7430 1879 7423 1880 7300 1880L7170 1880 7170 1975C7170 2046 7173 2070 7183 2069 7189 2068 7241 2068 7298 2069 7393 2070 7400 2071 7400 2090 7400 2109 7393 2110 7285 2110L7170 2110 7170 2280 7295 2280C7413 2280 7420 2281 7420 2300 7420 2319 7413 2320 7270 2320L7120 2320zM8470 2320L8470 1840 8575 1840C8725 1840 8769 1865 8784 1955 8793 2008 8767 2059 8720 2082 8701 2091 8692 2099 8701 2100 8732 2100 8762 2146 8762 2193 8764 2287 8713 2320 8565 2320L8470 2320zM8670 2267C8683 2260 8701 2243 8709 2228 8744 2166 8682 2110 8578 2110L8520 2110 8520 2280 8583 2280C8617 2280 8656 2274 8670 2267zM8684 2056C8725 2039 8746 1993 8734 1947 8721 1902 8673 1880 8588 1880L8520 1880 8520 2070 8585 2070C8621 2070 8665 2064 8684 2056zM9110 2321L9290 2045 9290 1943C9290 1843 9291 1840 9313 1840 9334 1840 9335 1842 9332 1937L9329 2035 9413 2165C9459 2237 9500 2301 9504 2308 9509 2316 9503 2320 9485 2320 9464 2320 9449 2303 9389 2213 9351 2153 9316 2105 9312 2106 9308 2106 9275 2153 9239 2211 9180 2303 9169 2315 9141 2318L9110 2321zM9800 2300C9800 2282 9807 2280 9880 2280L9960 2280 9960 1840 10010 1840 10010 2280 10090 2280C10163 2280 10170 2282 10170 2300 10170 2319 10163 2320 9985 2320 9807 2320 9800 2319 9800 2300zM10530 2320L10530 1840 10685 1840C10833 1840 10840 1841 10840 1860 10840 1879 10833 1880 10710 1880L10580 1880 10580 2068 10695 2066C10808 2065 10810 2065 10810 2088 10810 2110 10808 2110 10695 2110L10580 2110 10580 2280 10705 2280C10823 2280 10830 2281 10830 2300 10830 2319 10823 2320 10680 2320L10530 2320zM11220 2079C11220 1839 11220 1839 11241 1842 11262 1845 11263 1850 11261 1940 11258 2061 11262 2070 11308 2066 11343 2063 11348 2058 11413 1951 11470 1859 11486 1840 11506 1840 11519 1840 11530 1842 11530 1845 11530 1848 11501 1898 11464 1956 11428 2015 11400 2063 11402 2064 11404 2066 11419 2072 11437 2079 11491 2101 11515 2135 11515 2190 11515 2249 11488 2290 11439 2307 11420 2314 11363 2319 11313 2319L11220 2320 11220 2079zM11447 2246C11472 2217 11477 2174 11457 2149 11435 2120 11402 2110 11330 2110L11259 2110 11261 2183C11265 2287 11261 2283 11348 2278 11415 2273 11426 2270 11447 2246zM11909 2100C11908 1979 11907 1872 11906 1863 11905 1851 11913 1844 11928 1842L11950 1839 11950 2079C11950 2313 11949 2320 11930 2320 11911 2320 11910 2313 11909 2100zM12499 2288C12492 2270 12449 2171 12404 2069 12300 1833 12302 1840 12333 1840 12352 1840 12361 1850 12382 1903L12408 1965 12658 1969 12685 1904C12708 1850 12716 1840 12737 1840 12768 1840 12771 1828 12659 2093 12610 2208 12570 2306 12570 2311 12570 2316 12557 2320 12541 2320 12518 2320 12510 2314 12499 2288zM12589 2141C12613 2084 12634 2031 12637 2023 12641 2013 12620 2010 12535 2010 12476 2010 12430 2014 12432 2018 12476 2130 12536 2258 12540 2252 12544 2248 12566 2198 12589 2141zM13115 2320L13115 1840 13137 1840C13160 1840 13160 1840 13162 2048L13165 2255 13309 2048C13439 1860 13456 1840 13482 1840 13504 1840 13510 1845 13511 1863L13511 2100C13512 2309 13511 2315 13491 2318 13471 2321 13470 2317 13468 2113L13465 1906 13351 2070C13288 2161 13223 2254 13207 2278 13182 2312 13171 2320 13146 2320L13115 2320zM9596 1478C9509 1460 9465 1390 9489 1311 9504 1261 9534 1237 9617 1209 9705 1180 9734 1151 9726 1102 9713 1020 9597 992 9534 1056 9513 1076 9506 1078 9490 1067 9465 1052 9465 1048 9493 1022 9557 962 9686 965 9743 1028 9788 1077 9783 1170 9734 1209 9720 1220 9679 1238 9642 1250 9531 1286 9498 1350 9559 1411 9595 1447 9645 1450 9701 1418 9733 1400 9742 1399 9755 1410 9797 1445 9680 1496 9596 1478zM1442 1454C1381 1424 1344 1380 1324 1314 1271 1136 1380 980 1557 980 1626 980 1667 995 1712 1038 1733 1057 1737 1067 1729 1077 1714 1094 1694 1094 1687 1076 1679 1055 1598 1020 1557 1020 1512 1020 1454 1043 1421 1073 1344 1144 1340 1299 1413 1379 1478 1450 1602 1459 1667 1398 1686 1380 1691 1379 1709 1392L1730 1407 1707 1427C1641 1488 1532 1499 1442 1454zM4315 1461C4265 1438 4216 1387 4195 1336 4170 1277 4172 1172 4200 1116 4226 1061 4290 1004 4339 990 4428 965 4538 988 4586 1041 4602 1059 4602 1062 4588 1077 4573 1092 4569 1091 4541 1067 4448 989 4303 1017 4248 1123 4233 1153 4226 1183 4226 1230 4226 1312 4253 1369 4312 1407 4347 1431 4364 1435 4420 1435 4478 1435 4491 1431 4524 1406 4558 1380 4563 1379 4578 1393 4598 1414 4584 1431 4526 1459 4471 1486 4371 1487 4315 1461zM6275 1469C6226 1455 6165 1396 6140 1338 6095 1233 6128 1089 6213 1027 6258 993 6303 980 6374 980 6473 981 6547 1026 6593 1115 6623 1173 6622 1289 6591 1349 6545 1438 6473 1480 6370 1479 6334 1479 6291 1474 6275 1469zM6460 1418C6580 1357 6607 1180 6511 1080 6434 1000 6307 1001 6223 1082 6184 1120 6167 1166 6168 1234 6168 1297 6188 1345 6233 1388 6291 1444 6384 1456 6460 1418zM2080 1230C2080 997 2081 990 2100 990 2119 990 2120 997 2120 1105L2120 1220 2390 1220 2390 990 2440 990 2440 1470 2390 1470 2390 1260 2120 1260 2120 1365C2120 1463 2119 1470 2100 1470 2081 1470 2080 1463 2080 1230zM2818 1333C2816 1132 2818 1110 2843 1061 2874 998 2916 978 3002 982 3081 986 3115 1006 3145 1066 3162 1100 3165 1129 3168 1288L3172 1470 3120 1470 3120 1308C3120 1129 3112 1085 3076 1051 3043 1020 2974 1012 2932 1034 2874 1064 2865 1095 2862 1293 2859 1460 2857 1470 2839 1470 2821 1470 2820 1461 2818 1333zM3545 1472L3545 990 3568 990C3590 990 3590 992 3590 1106L3590 1221 3674 1215 3740 1105C3796 1012 3811 994 3834 992 3867 988 3868 985 3782 1123 3752 1172 3730 1213 3731 1215 3733 1216 3752 1225 3772 1233 3820 1253 3843 1289 3842 1345 3840 1440 3805 1463 3655 1468L3545 1472zM3777 1396C3806 1361 3806 1328 3776 1293 3754 1268 3745 1265 3671 1262L3590 1258 3590 1433 3672 1428C3745 1424 3756 1420 3777 1396zM4940 1470L4940 990 4990 990 4990 1221 5123 1218 5255 1215 5256 1105C5258 1001 5259 995 5279 992 5300 989 5300 990 5300 1229 5300 1463 5299 1470 5280 1470 5258 1470 5259 1474 5259 1343L5259 1260 4990 1260 4990 1470 4940 1470zM6970 1470L6970 990 7020 990 7020 1220 7130 1220C7233 1220 7240 1221 7240 1240 7240 1259 7233 1260 7130 1260L7020 1260 7020 1430 7140 1430C7253 1430 7260 1431 7260 1450 7260 1469 7253 1470 7115 1470L6970 1470zM8191 1448C8178 1414 8009 1028 7998 1008 7991 993 7994 990 8015 990 8037 990 8045 999 8070 1055L8099 1120 8347 1120 8371 1058C8392 1004 8400 995 8423 992 8438 990 8450 991 8450 993 8450 995 8406 1103 8352 1231 8261 1448 8251 1465 8227 1468 8206 1471 8198 1466 8191 1448zM8279 1284L8328 1165 8228 1162C8172 1161 8125 1162 8122 1164 8120 1167 8134 1209 8155 1257 8176 1305 8199 1360 8207 1379 8215 1397 8223 1410 8225 1408 8228 1406 8252 1350 8279 1284zM8772 1276C8775 1060 8778 1052 8850 1002 8897 971 8993 971 9040 1003 9108 1048 9115 1073 9118 1283L9122 1470 9070 1470 9070 1300C9070 1120 9063 1083 9022 1047 8991 1019 8924 1013 8884 1035 8826 1066 8816 1103 8812 1298 8808 1461 8807 1470 8788 1470 8769 1470 8769 1464 8772 1276zM10077 1450C10072 1431 10077 1430 10156 1430L10240 1430 10240 990 10290 990 10290 1430 10370 1430C10443 1430 10450 1432 10450 1450 10450 1469 10443 1470 10266 1470 10091 1470 10082 1469 10077 1450zM10780 1470L10780 990 10830 990 10830 1220 10908 1220 10975 1105C11031 1009 11046 990 11066 990 11079 990 11090 993 11090 998 11090 1002 11061 1052 11025 1110L10961 1215 10998 1231C11057 1257 11075 1284 11075 1345 11075 1439 11025 1470 10875 1470L10780 1470zM11004 1401C11030 1377 11037 1340 11024 1305 11013 1277 10964 1260 10895 1260L10830 1260 10830 1432 10904 1428C10966 1425 10983 1421 11004 1401zM11563 1417C11551 1389 11505 1282 11460 1181 11416 1080 11380 995 11380 993 11380 992 11391 990 11404 990 11424 990 11432 1001 11455 1055L11483 1121 11608 1118 11734 1115 11759 1053C11782 998 11788 990 11812 990L11839 990 11804 1073C11784 1118 11739 1226 11703 1313 11642 1459 11635 1470 11611 1470 11589 1470 11581 1461 11563 1417zM11665 1285C11691 1221 11710 1167 11708 1164 11705 1162 11657 1161 11602 1162L11502 1165 11553 1287C11582 1353 11608 1406 11611 1404 11614 1402 11638 1349 11665 1285zM12160 1470L12160 990 12299 990C12433 990 12438 991 12433 1010 12428 1028 12419 1030 12319 1030L12210 1030 12210 1470 12160 1470zM12760 1470L12760 990 12810 990 12810 1470 12760 1470zM13331 1448C13326 1435 13279 1328 13227 1210 13155 1047 13136 994 13147 992 13174 985 13186 998 13210 1059L13235 1120 13487 1120 13511 1058C13532 1004 13540 995 13563 992 13578 990 13590 990 13590 992 13590 994 13545 1101 13491 1230 13400 1445 13390 1465 13366 1468 13347 1471 13338 1466 13331 1448zM13418 1285L13468 1165 13368 1162C13313 1161 13265 1161 13263 1164 13258 1169 13280 1225 13340 1364 13351 1391 13362 1411 13364 1409 13366 1407 13391 1351 13418 1285z" transform="matrix(.11513 0 0 -.11513 -124.343 1586.76)"/>
</svg>