<svg viewBox="0 0 2484 1242" xmlns="http://www.w3.org/2000/svg" fill-rule="evenodd" clip-rule="evenodd" stroke-linejoin="round" stroke-miterlimit="2">
<g fill-rule="nonzero">
<path d="M606.68 201.38l-37.5 19.85v133.43c0 50.24 21.73 79.67 65.36 79.67 39.16 0 65.72-28.25 65.72-77.35V219.83l-37.2-18.6h88.77l-36.12 20v135.13c0 57.99-33.13 94.04-89.23 94.04-53.9 0-94.79-27.55-94.79-92.95V221.23l-38.44-19.85h113.43zM898.56 425V323.13c0-25.48-9.56-39.77-33.43-39.77-18.5 0-35.08 10.26-47.04 21.92V425l29.6 18.37H748.6l33.38-18.99V293.03l-36.95-16.58L818.1 267v32.83c12.73-17.68 36.29-35.02 63.22-35.02 37.22 0 53.37 19.94 53.37 53.93V425l34.57 18.37h-93.21L898.56 425zM1003.63 203.53c0-13.12 10.32-23.74 24.36-23.74 13.85 0 24.35 10.62 24.35 23.74 0 12.91-10.5 23.74-24.35 23.74-14.04 0-24.36-10.83-24.36-23.74zm8.6 220.85V292.05l-39.48-15.6 75.6-10.43V425l35.96 18.37H978.87l33.37-18.99zM1254.23 289.16l-60.58 125.02.03.08-17.58 36.14-80.84-161.24-25.93-17.51h101.64l-36.46 16.65 52.89 112.58 51.6-112.12-35.82-17.11h75.63l-24.58 17.5zM1310.78 330.56h86.2c-.14-29.9-10.43-53.72-38.32-53.72-24.17 0-41.61 22.51-47.88 53.72zm123.79 73.84c-9.8 24.03-37.04 46-76.62 46-49.08 0-87.03-32.37-87.03-89.2 0-58.65 38.74-96.58 89.31-96.58 48.7 0 72.83 34.89 70.45 77.58h-121.67c-.5 4.81-.77 9.78-.77 14.85 0 44.1 27.42 73.91 64.89 73.91 24.4 0 47.48-10.78 61.44-26.56zM1510 311.14c15.68-34.44 43.17-46.52 66.52-46.52l-6.11 37.96c-20.04-6.09-42.43-1.7-60.4 15.97V425l37.9 18.38h-107.4l33.38-19V292.05l-39.5-15.6 75.61-10.43v45.12zM1703.05 275.11l-2.42 43.09-26.98-39.9c-4.27-2.04-11.19-3.13-17.61-3.13-23.03 0-37.28 11.6-37.28 29.45 0 41.57 94.59 39.4 94.59 92.18 0 42.13-41.14 53.6-70.21 53.6-20.55 0-41.29-5.78-55.77-14.77l2.1-47.97 28.12 46.47c6.77 3.84 14.95 5.72 24.93 5.72 24.51 0 38.98-12.36 38.98-31.6 0-38.4-93.34-34.72-93.34-92.23 0-31.1 27.8-51.4 67.3-51.4 18.07 0 36.94 4.48 47.59 10.5zM1752.33 203.53c0-13.12 10.31-23.74 24.35-23.74 13.85 0 24.36 10.62 24.36 23.74 0 12.91-10.5 23.74-24.36 23.74-14.04 0-24.35-10.83-24.35-23.74zm8.6 220.85V292.05l-39.5-15.6 75.62-10.43V425l35.95 18.37h-105.44l33.37-18.99zM1950.3 421.13c-10.67 15.28-28.24 26.88-51.1 26.88-28.8 0-48.88-15.7-48.88-49.44V286.7h-30.52l33.8-19.92 32.83-42.88v47.75h58.43l-11.94 15.05h-46.49v102.98c0 29.25 11.87 41.62 32.9 41.62 10.9 0 20.74-3.69 30.97-10.17zM2167.96 271.65l-25.77 18.44-111.06 236.36-27.52-20.07 55.72-66.95-75.37-147.8-29.7-19.98h99.26l-31.75 16.65 55.89 115.61 47.54-114.99-36.74-17.27h79.5zM573.33 536.5v113.1l54.33-4.57 14.04-19.16v59.38l-14.04-19.16-54.33-4.31v83.73l48.03 18.77H496.65l39.2-19.39V543.06l-39.98-20.78h142.61l31.98-5.06 4.66 72.58-31.45-53.3h-70.34zM719.15 651.46h86.2c-.14-29.89-10.43-53.72-38.32-53.72-24.18 0-41.62 22.51-47.88 53.72zm123.79 73.84c-9.8 24.03-37.04 46-76.62 46-49.08 0-87.02-32.37-87.02-89.19 0-58.66 38.73-96.59 89.3-96.59 48.71 0 72.83 34.9 70.45 77.58H717.4c-.51 4.81-.77 9.78-.77 14.85 0 44.1 27.41 73.92 64.88 73.92 24.4 0 47.47-10.79 61.44-26.57z" fill="#fff"/>
<path d="M875.88 745.28V520.2l-36.94-16.38 73.06-9.64V745.9l35.94 18.38H842.51l33.37-19zM988.01 745.28V520.2l-36.93-16.38 73.05-9.64V745.9l35.95 18.38H954.64l33.37-19zM1202.57 678.37c0-41.93-15.87-79.55-52.8-79.55-37.12 0-54.24 37.62-54.24 79.55 0 42.13 17.31 80.26 53.46 80.26 37.9 0 53.58-38.13 53.58-80.26zm-144.05.59c0-54.33 35.74-93.44 91.45-93.44 56.91 0 89.62 37.93 89.62 92.26 0 55.45-33.88 93.06-90.8 93.06-55.71 0-90.27-36.42-90.27-91.88zM1534.16 592.55l-27.8 19.21-64.95 159.54-55.09-131.79-57.18 131.8-69.53-158.77-26.75-20h93.79l-30.92 16.66 42.65 108.5 39.7-97.9-4-9.59-22.95-17.66h78.97l-20.11 17.04 40.65 106.86 41.3-106.32-35.1-17.58h77.32zM1654.32 596.02l-2.42 43.08-26.98-39.9c-4.27-2.03-11.19-3.13-17.61-3.13-23.03 0-37.28 11.61-37.28 29.45 0 41.57 94.59 39.4 94.59 92.18 0 42.13-41.14 53.6-70.2 53.6-20.56 0-41.3-5.77-55.78-14.76l2.1-47.98 28.12 46.47c6.77 3.85 14.95 5.72 24.93 5.72 24.51 0 38.98-12.35 38.98-31.6 0-38.4-93.34-34.72-93.34-92.22 0-31.1 27.8-51.4 67.3-51.4 18.08 0 36.94 4.47 47.59 10.49zM1816.55 745.9V644.03c0-25.48-9.56-39.77-32.45-39.77-17.7 0-34.12 10.26-46.06 21.92V745.9l29.6 18.38h-99.08l33.37-19V520.2L1664 504.01l74.04-9.83V620.7c12.7-17.66 36.1-35 62.23-35 36.24 0 52.4 19.94 52.4 53.93V745.9l36.14 18.38h-94.78l22.52-18.38zM1923.17 524.43c0-13.11 10.31-23.73 24.35-23.73 13.85 0 24.36 10.62 24.36 23.73 0 12.92-10.51 23.74-24.36 23.74-14.04 0-24.35-10.82-24.35-23.74zm8.6 220.85V612.95l-39.5-15.6 75.61-10.42V745.9l35.96 18.38h-105.45l33.38-19z" fill="#fff"/>
<path d="M2152.96 678.4c0-49.62-21.96-75.5-50.6-75.5-14.45 0-29.28 8.36-39.9 21.96v115.69c9.94 9.21 21.65 14.3 34.23 14.3 35.7 0 56.27-29.91 56.27-76.44zm37.63-1.54c0 58.68-35.95 94.44-78.43 94.44-21.94 0-38.78-8.78-49.7-22.16v78.3l35.96 18.36h-105.44l33.37-19V613.94l-36.94-16.58 73.06-9.45v29.2c12.34-19.58 34.9-31.58 57.36-31.58 41.25 0 70.76 30.2 70.76 91.34zM704.9 909.83L672.92 856c-8.95-3.8-19.55-5.63-34-5.63-57.3 0-92.2 54.92-92.2 113.03 0 61.83 36.68 114.3 92.67 114.3 13.9 0 26.1-1.89 35.56-5.6l33.57-54.34-4.6 58.93c-17.6 8.9-44.45 15.52-74.2 15.52-64.07 0-122.62-44.83-122.62-124.96 0-77.03 57.62-131.1 131.26-131.1 26.2 0 51.14 6.43 65.86 13.82l.66 59.86zM872.6 1066.81V964.94c0-25.49-9.55-39.77-32.45-39.77-17.7 0-34.12 10.26-46.05 21.91v119.73l29.6 18.37H724.6l33.38-19V841.12l-37.93-16.2 74.04-9.83v126.54c12.7-17.66 36.09-35 62.24-35 36.23 0 52.38 19.94 52.38 53.93v106.26l36.15 18.37h-94.79l22.53-18.37zM1023.95 952.95c15.68-34.44 43.16-46.52 66.5-46.52l-6.1 37.95c-20.04-6.08-42.44-1.7-60.4 15.97v106.46l37.9 18.38h-107.4l33.38-19V933.86l-39.5-15.6 75.62-10.43v45.12zM1128 845.33c0-13.1 10.31-23.73 24.36-23.73 13.84 0 24.35 10.62 24.35 23.73 0 12.92-10.5 23.74-24.35 23.74-14.05 0-24.36-10.82-24.36-23.74zm8.6 220.86V933.86l-39.49-15.6 75.61-10.43v158.98l35.95 18.37h-105.44l33.38-19zM1337.59 916.92l-2.42 43.1-26.98-39.92c-4.27-2.02-11.2-3.13-17.61-3.13-23.04 0-37.27 11.62-37.27 29.45 0 41.57 94.58 39.4 94.58 92.19 0 42.12-41.14 53.6-70.21 53.6-20.55 0-41.29-5.77-55.77-14.76l2.1-47.98 28.12 46.46c6.78 3.85 14.95 5.73 24.93 5.73 24.51 0 38.98-12.35 38.98-31.6 0-38.4-93.33-34.73-93.33-92.23 0-31.1 27.78-51.4 67.29-51.4 18.08 0 36.94 4.48 47.59 10.49zM1485.99 1062.93c-10.67 15.3-28.25 26.9-51.1 26.9-28.79 0-48.88-15.7-48.88-49.45V928.5h-30.52l33.8-19.92 32.83-42.87v47.74h58.44l-11.95 15.05h-46.49v102.98c0 29.27 11.87 41.63 32.9 41.63 10.9 0 20.74-3.68 30.97-10.18zM1522.69 845.33c0-13.1 10.31-23.73 24.35-23.73 13.85 0 24.36 10.62 24.36 23.73 0 12.92-10.51 23.74-24.36 23.74-14.04 0-24.35-10.82-24.35-23.74zm8.6 220.86V933.86l-39.49-15.6 75.61-10.43v158.98l35.95 18.37h-105.44l33.37-19zM1708.25 1050.6v-48c-37.65 1.13-65.58 14.05-65.58 40.2 0 18.84 13.87 29 28.41 29 15.45 0 28.81-8.17 37.17-21.2zm0 34.58v-23.92c-10.96 16.5-30.9 29.4-56.44 29.4-25.58 0-44.95-16.59-44.95-42.15 0-41.9 52.08-55.98 101.4-55.76v-22.87c0-30.9-17.09-39.33-40.17-39.33-20.47 0-40.13 9.07-51.76 17.58l12.43-27.82c12.12-6.83 30.69-13.12 51.44-13.12 39.12 0 64.16 18.47 64.16 53.44v106.18l35.37 18.37h-71.48zM1937.9 1066.81V964.94c0-25.49-9.57-39.77-33.44-39.77-18.5 0-35.08 10.26-47.04 21.92v119.72l29.6 18.37h-99.09l33.38-19V934.85l-36.95-16.58 73.06-9.45v32.82c12.72-17.66 36.29-35 63.22-35 37.22 0 53.37 19.93 53.37 53.92v106.26l34.57 18.37h-93.21l22.53-18.37zM2137.96 916.92l-2.42 43.1-26.98-39.92c-4.27-2.02-11.2-3.13-17.6-3.13-23.04 0-37.28 11.62-37.28 29.45 0 41.57 94.58 39.4 94.58 92.19 0 42.12-41.14 53.6-70.2 53.6-20.56 0-41.3-5.77-55.78-14.76l2.1-47.98 28.12 46.46c6.77 3.85 14.95 5.73 24.93 5.73 24.51 0 38.98-12.35 38.98-31.6 0-38.4-93.33-34.73-93.33-92.23 0-31.1 27.78-51.4 67.29-51.4 18.08 0 36.94 4.48 47.59 10.49z" fill="#fff"/>
<path d="M2334.08 641.36c0-14.34-5.1-25.71-18.13-27.57-29.64 2.7-50.78 44.77-50.78 73.82 0 14.4 5.37 26.13 19.15 27.82 28.94-2.58 49.76-45.14 49.76-74.07zm-82.37 45.57c0-39.95 31.3-78.7 64.84-78.7 20.18 0 30.99 15.05 30.99 35.07 0 40.3-32.83 77.92-64.17 77.92-22.2 0-31.66-16.32-31.66-34.29z" fill="#ADB3B7"/>
<path d="M2437.58 581.47c2.58-16.76-5.15-24.48-11.34-24.48-13.52 0-24.8 14.57-31.73 40.84l-3.82 14.54h29.68l-6.12 6.33h-25.22l-28.25 107.38c-6.9 26.2-23.95 41.93-39.04 41.93-7.99 0-13.23-2.35-16.22-4.86l7.16-20.01c.38 11.56 4.43 18.66 11.3 18.66 8.88 0 16.68-8.52 22.89-32.04l29.32-111.06h-23.65l14-6.33h11.33l3.71-14.05c8.63-32.79 25.22-46.48 45.26-46.48 11.86 0 19 6.73 22.28 10.15l-11.54 19.48z" fill="#ADB3B7"/>
<path d="M255.52 713.48s1.1-7.83 2.25-15.63l104.88-79.05 2.87-18.07-107.42 76c.67-3.02 1.45-5.8 2.5-7.77 6.05-11.26 101.3-87.56 104.92-94.64v-76.9c-3.64 3.86-76.9 70.23-75.3 67.98 1.62-2.25 11.27-22.2 11.27-22.2l65.4-69.56c-.84-6.1-22.28-261.59-38.56-284.55-16.3-22.96-159.95-156.6-159.95-156.6-3.07 11.51-9.2 79.55-19.47 128.3-1.98 9.42-3.54 26.28-7.52 46.2l36.28 55.16-41.62-29.6c-13.3 61.39-35.22 136.44-38.73 149.72-4.98 18.82-31.83 77.51-31.83 77.51l44.74 105.83-57.43-83.62s-16.42 43.55-16.4 47.66c.01 4.1 81.9 147.63 81.9 147.63l-3.85 17.07-83.25-131.5 10.2 228.64s28.41 52.7 56.7 93.31c26.91 38.6 75.3 75.37 75.3 75.37s-55.44-206.2-2.97-389.07 59.19-187.03 56.73-246.95c-2.45-59.94-21.61-193.4-21.61-193.4s29.64 151.6 33.55 205.43c7.03 96.78-84.5 232.89-72.4 435.65 8.72 122.78 22.03 176 22.03 176l63.85-34.07s52.74-84.84 63.22-98.68c10.49-13.85 31.35-73.67 31.35-73.67-6.87 8.37-72.35 45.8-67.92 41.61 4.44-4.19 76.93-77.6 76.93-77.6l4.69-68.93-105.33 76.99z" fill="#fdba11"/>
<path d="M173.33 960c11.07 7.24 17.1 9.11 17.1 9.11l40.86 143.7s-18.09 27.66-19.15 98.33c-8.52-55.77-35.05-223.29-40.37-252.24l1.56 1.1z" fill="#fdba11"/>
<path d="M168.38 32.5c-3.06 11.5-9.62 80.38-19.47 128.3-1.94 9.42-3.55 26.27-7.52 46.18l36.29 55.16-41.63-29.6c-13.31 61.4-34.17 133.32-38.73 149.73-5.52 19.9-31.83 77.52-31.83 77.52l44.74 105.82-57.43-83.63s-16.42 43.57-16.4 47.67c.02 4.1 81.9 147.63 81.9 147.63l-3.85 17.07-83.25-131.5 10.2 228.64s28.41 52.7 56.7 93.31c26.9 38.6 75.3 75.37 75.3 75.37s-55.44-206.2-2.97-389.07c52.47-182.86 59.19-187.03 56.74-246.95-2.46-59.93-21.54-193.03-21.54-193.03L168.38 32.5z" fill="#e4aa17"/></g></svg>